# xmcd
#
# Track frame offsets: 
#        150
#        1713
#        31784
#        52679
#        66496
#        90884
#        115463
#        144830
#        160204
#        199926
#        219735
#        238131
#        259918
#        309814
#
# Disc length: 4290 seconds
#
# Revision: 0
# Processed by: cddbd v1.5.2PL0 Copyright (c) Steve Scherf et al.
# Submitted via: ExactAudioCopy v1.0b4
#
DISCID=b210c00e
DTITLE=Buddy Guy and Otis Rush - Live At The Chicago Blues Festival 10 J
DTITLE=une ’88
DYEAR=2016
DGENRE=Blues
TTITLE0=Introduction (Remastered)
TTITLE1=Comin’ Home Baby (Remastered) (Otis Rush)
TTITLE2=Jam (Remastered) (Otis Rush)
TTITLE3=Instrumental (Remastered) (Otis Rush)
TTITLE4=All Your Love (Remastered) (Otis Rush)
TTITLE5=Crosscut Saw (Remastered) (Otis Rush)
TTITLE6=I Wonder Why (Remastered) (Otis Rush)
TTITLE7=Buddy Guy Intro Jam (Remastered)
TTITLE8=Five Long Years (Remastered) (Buddy Guy)
TTITLE9=Look On Yonder Wall (Remastered) (Buddy Guy)
TTITLE10=Things (That) I Used To Do (Remastered) (Buddy Guy)
TTITLE11=I Smell A Rat (Remastered) (Buddy Guy)
TTITLE12=Gambler’s Blues (Remastered) (Buddy Guy)
TTITLE13=Post Show Interview With Buddy Guy (Remastered)
EXTD=
EXTT0=
EXTT1=
EXTT2=
EXTT3=
EXTT4=
EXTT5=
EXTT6=
EXTT7=
EXTT8=
EXTT9=
EXTT10=
EXTT11=
EXTT12=
EXTT13=
PLAYORDER=
